Genre:Adventure / Romance / War
Language:Mandarin
LINK:http://hkmdb.com/db/movies/view.mhtml?id=14597&display_set=eng
Source:1080p BluRay.
SUBTiTLES: N/A


Format : MPEG-4
Format profile : Base Media
Codec ID : isom
File size : 2.13 GiB
Duration : 1h 40mn
Overall bit rate : 3 034 Kbps


Video
Format : AVC
Format/Info : Advanced Video Codec
Format profile : High@L4.1
Format settings, CABAC : Yes
Format settings, ReFrames : 3 frames
Codec ID : avc1
Codec ID/Info : Advanced Video Coding
Duration : 1h 40mn
Bit rate mode : Variable
Bit rate : 2 537 Kbps
Maximum bit rate : 19.0 Mbps
Width : 1 280 pixels
Height : 688 pixels
Display aspect ratio : 1.860
Frame rate mode : Constant
Frame rate : 24.000 fps
Color space : YUV
Chroma subsampling : 4:2:0
Bit depth : 8 bits
Scan type : Progressive
Bits/(Pixel*Frame) : 0.120
Stream size : 1.77 GiB (83%)
Writing library : x264


Audio
ID : 2
Format : AAC
Format/Info : Advanced Audio Codec
Format version : Version 4
Format profile : LC
Format settings, SBR : No
Codec ID : 40
Duration : 1h 40mn
Bit rate mode : Variable
Bit rate : 509 Kbps
Maximum bit rate : 562 Kbps
Channel(s) : 6 channels
Channel positions : Front: L C R, Side: L R, LFE
Sampling rate : 48.0 KHz
Stream size : 365 MiB (17%)



Plot:
In the seemingly peaceful human world lives a secret sub-culture, vampires. A lone vampire hunter, Ar (Lu Xia Jiang) is determined to hunt and kill all vampires. Her target is the most powerful vampire, Vampire Mung (Yuen Wah) who killed ArΓ?Ös beloved sister. With the help of Max, a vegetarian vampire who is also ArΓ?Ös best friend and neighbour and a few friendly vampires, Ar comes closer to face Mung. However Mung starts killing the vampires and becomes even more powerful. Knowing that as a human, Ar is no match for the evil Mung, so in order to save mankind, she decides to turn herself into the very thing sheΓ?Ös been hunting û a vampire..

Greets:

INK,CRYS,IMAGINE,LKRG,FXG,3Li,FLAWL3SS,TA,iLLUSiON,ViSiON,LU,TheFalcon007,MYSTiC,PrisM,Noir,WBZ,LAP,Rx,Kingdom,SAFCuk009+Fabreezy,HDLiTE,TWiZTED,ExtraTorrentRG.ELEKTRI4KA,MAGNAT,CM8
And to all the other p2p grps past and present





================================== 
http://thepiratebay.org/user/hiest
==================================





Screenshots:
 
http://www.postimg.com/29000/28537.jpg
 
http://www.postimg.com/29000/28538.jpg
 
http://www.postimg.com/29000/28540.jpg
 
http://www.postimg.com/29000/28539.jpg
 
http://www.postimg.com/29000/28543.jpg
 
http://www.postimg.com/29000/28541.jpg